<svg width="200" height="50" viewBox="0 0 200 50" fill="none" xmlns="http://www.w3.org/2000/svg">
<g clip-path="url(#clip0_416_1083)">
<path d="M15.2001 5.3146C15.318 5.88658 15.4976 6.43077 15.587 6.99665C15.6521 7.40869 15.7246 7.82073 15.7598 8.23548C15.7802 8.46929 15.8581 8.57501 16.0967 8.60347C17.2176 8.73698 18.2843 9.05617 19.2724 9.60714C20.8995 10.5139 22.1173 11.83 23.1108 13.3921C24.2494 15.1826 24.7759 17.213 25.4543 19.1823C26.4797 22.1602 27.4366 25.1624 28.5866 28.0941C29.1064 29.419 29.6716 30.7208 29.961 32.123C30.1169 32.878 30.167 33.6417 30.2084 34.4075C30.3236 36.5484 29.9888 38.6181 29.1546 40.5929C28.3616 42.4694 27.2014 44.0905 25.6732 45.4506C23.2288 47.6267 20.3533 48.8222 17.1308 49.1963C14.2919 49.5263 11.5283 49.2003 8.86426 48.1147C6.48147 47.1435 4.46803 45.6844 2.88424 43.6534C1.968 42.4789 1.25167 41.192 0.782022 39.7715C-0.481886 35.9459 -0.185731 32.2253 1.46379 28.5691C2.05745 27.2537 2.49592 25.8712 2.96489 24.505C3.73408 22.2632 4.52021 20.0268 5.265 17.7768C5.70211 16.4566 6.13449 15.1385 6.81896 13.9214C7.94665 11.9167 9.4464 10.2835 11.5662 9.30421C12.431 8.90505 13.352 8.6665 14.3062 8.5906C14.5393 8.5723 14.6274 8.54248 14.542 8.27818C14.0744 6.82858 13.3913 5.503 12.3076 4.41665C11.6577 3.76538 10.9075 3.24288 10.0563 2.87556C9.48706 2.63024 9.10348 2.22023 9.02826 1.592C8.95507 0.983428 9.20717 0.507684 9.73984 0.204075C10.2325 -0.0758148 10.7361 -0.0561615 11.2199 0.235249C12.2223 0.839756 13.0192 1.66587 13.7152 2.59432C14.1781 3.21238 14.1693 3.22119 14.7155 2.66277C16.0655 1.28365 17.6594 0.368078 19.5882 0.0780228C20.9883 -0.132741 22.3437 0.0976761 23.6483 0.567999C26.1456 1.46798 28.3095 2.92775 30.2931 4.67214C30.5039 4.85783 30.516 4.9561 30.2653 5.10994C27.8452 6.59206 25.289 7.73602 22.4535 8.11485C19.9067 8.45438 17.6764 7.73195 15.8168 5.93198C15.711 5.82965 15.6019 5.73139 15.4982 5.6277C15.3966 5.52604 15.2997 5.41964 15.2001 5.3146ZM21.4295 35.3143C21.4349 34.5871 21.3278 33.7596 21.0825 32.9579C20.4177 30.7832 19.315 28.8775 17.4886 27.4747C15.9726 26.3104 14.704 26.1464 13.0579 27.2897C11.9823 28.0365 11.1549 29.0097 10.4731 30.1157C9.21124 32.1643 8.5166 34.3486 8.92661 36.7815C9.27359 38.8383 10.4243 40.2432 12.3991 40.946C13.6901 41.4054 15.0239 41.4895 16.3711 41.3045C17.8682 41.0991 19.2053 40.5481 20.194 39.3473C21.1306 38.2101 21.4308 36.8649 21.4295 35.3143Z" fill="#727C8F"/>
</g>
<path d="M41.4258 37.1594L50.4169 12.0156H54.1981V16.4938H52.8912L46.1305 37.1594H41.4258ZM45.9736 30.66L47.1759 27.1925H58.6936L59.8959 30.66H45.9736ZM59.7391 37.1594L52.9784 16.4938V12.0156H55.4701L64.4438 37.1594H59.7391ZM69.4105 37.1594L62.8763 18.6893H67.4938L71.7803 33.1343H71.8848L76.1713 18.6893H80.6842L74.1849 37.1594H69.4105ZM89.4844 37.5253C87.6722 37.5253 86.0982 37.142 84.7623 36.3753C83.4264 35.597 82.3868 34.4935 81.6433 33.0646C80.9115 31.6242 80.5455 29.9108 80.5455 27.9244V27.8895C80.5455 25.9147 80.9173 24.2129 81.6607 22.7841C82.4042 21.3436 83.4439 20.2401 84.7797 19.4734C86.1156 18.6951 87.678 18.3059 89.467 18.3059C91.2675 18.3059 92.8357 18.6951 94.1716 19.4734C95.5191 20.2401 96.5646 21.3378 97.3081 22.7667C98.0515 24.1955 98.4232 25.9031 98.4232 27.8895V27.9244C98.4232 29.9224 98.0515 31.6416 97.3081 33.0821C96.5762 34.5109 95.5424 35.6086 94.2065 36.3753C92.8706 37.142 91.2966 37.5253 89.4844 37.5253ZM89.5018 34.023C90.4195 34.023 91.2152 33.7848 91.889 33.3086C92.5628 32.8323 93.0797 32.1411 93.4398 31.235C93.8115 30.3173 93.9974 29.2138 93.9974 27.9244V27.8895C93.9974 26.6117 93.8115 25.5198 93.4398 24.6137C93.0681 23.7076 92.5395 23.0164 91.8542 22.5401C91.1804 22.0639 90.3847 21.8257 89.467 21.8257C88.5725 21.8257 87.7826 22.0639 87.0972 22.5401C86.4235 23.0164 85.8949 23.7076 85.5116 24.6137C85.1399 25.5198 84.954 26.6117 84.954 27.8895V27.9244C84.954 29.2138 85.1399 30.3173 85.5116 31.235C85.8949 32.1411 86.4235 32.8323 87.0972 33.3086C87.7826 33.7848 88.5841 34.023 89.5018 34.023ZM110.795 37.5253C109.913 37.5253 109.099 37.3859 108.356 37.1071C107.624 36.8167 106.979 36.416 106.422 35.9048C105.864 35.3821 105.405 34.7548 105.045 34.023H104.958V37.1594H100.619V12.0156H104.958V21.8606H105.045C105.405 21.1171 105.87 20.484 106.439 19.9613C107.008 19.4269 107.665 19.0204 108.408 18.7416C109.152 18.4512 109.959 18.3059 110.83 18.3059C112.375 18.3059 113.717 18.6951 114.855 19.4734C115.994 20.2401 116.877 21.3436 117.504 22.7841C118.131 24.2129 118.445 25.9205 118.445 27.9069V27.9244C118.445 29.8992 118.131 31.6068 117.504 33.0472C116.888 34.4876 116.005 35.597 114.855 36.3753C113.717 37.142 112.364 37.5253 110.795 37.5253ZM109.506 33.8836C110.435 33.8836 111.237 33.6455 111.911 33.1692C112.596 32.6813 113.119 31.9901 113.479 31.0956C113.839 30.2012 114.019 29.1441 114.019 27.9244V27.9069C114.019 26.6756 113.833 25.6185 113.461 24.7356C113.101 23.8528 112.584 23.1732 111.911 22.697C111.237 22.2091 110.435 21.9651 109.506 21.9651C108.612 21.9651 107.822 22.2091 107.136 22.697C106.463 23.1848 105.928 23.876 105.533 24.7705C105.138 25.6533 104.941 26.6988 104.941 27.9069V27.9244C104.941 29.1325 105.132 30.1838 105.516 31.0782C105.911 31.9727 106.451 32.6639 107.136 33.1518C107.822 33.6396 108.612 33.8836 109.506 33.8836ZM126.809 37.5253C125.45 37.5253 124.294 37.2524 123.342 36.7064C122.401 36.1488 121.681 35.3531 121.181 34.3192C120.682 33.2853 120.432 32.0598 120.432 30.6426V18.6893H124.753V29.7714C124.753 31.084 125.061 32.1005 125.677 32.8207C126.292 33.5293 127.222 33.8836 128.465 33.8836C129.08 33.8836 129.638 33.779 130.138 33.5699C130.649 33.3492 131.084 33.0414 131.444 32.6464C131.804 32.2515 132.077 31.781 132.263 31.235C132.449 30.6775 132.542 30.0618 132.542 29.388V18.6893H136.881V37.1594H132.542V34.2669H132.455C132.13 34.9175 131.706 35.4925 131.183 35.992C130.66 36.4799 130.033 36.8574 129.301 37.1246C128.569 37.3918 127.739 37.5253 126.809 37.5253ZM139.739 37.1594V18.6893H144.061V21.878H144.165C144.444 20.7628 144.949 19.8916 145.681 19.2643C146.424 18.6254 147.331 18.3059 148.399 18.3059C148.666 18.3059 148.922 18.3234 149.166 18.3582C149.41 18.3931 149.613 18.4337 149.776 18.4802V22.4007C149.602 22.331 149.352 22.273 149.027 22.2265C148.713 22.18 148.37 22.1568 147.998 22.1568C147.185 22.1568 146.483 22.3252 145.89 22.6621C145.298 22.9874 144.845 23.4695 144.531 24.1084C144.217 24.7473 144.061 25.5256 144.061 26.4433V37.1594H139.739ZM158.924 43.624C157.298 43.624 155.875 43.3975 154.655 42.9444C153.447 42.503 152.483 41.8931 151.763 41.1148C151.043 40.3365 150.595 39.4653 150.421 38.5011L150.386 38.3443H154.638L154.708 38.4837C154.94 39.0181 155.416 39.4595 156.136 39.808C156.868 40.1681 157.792 40.3481 158.907 40.3481C160.324 40.3481 161.41 39.9996 162.165 39.3027C162.92 38.6057 163.298 37.6705 163.298 36.4973V33.8313H163.211C162.874 34.4935 162.421 35.0627 161.852 35.5389C161.294 36.0152 160.638 36.3869 159.883 36.6541C159.139 36.9213 158.326 37.0549 157.443 37.0549C155.898 37.0549 154.551 36.6773 153.401 35.9223C152.262 35.1672 151.38 34.0985 150.752 32.7161C150.137 31.3222 149.829 29.6668 149.829 27.7501V27.7327C149.829 25.7811 150.142 24.1084 150.77 22.7144C151.409 21.3088 152.303 20.2227 153.453 19.456C154.603 18.6893 155.956 18.3059 157.513 18.3059C158.384 18.3059 159.186 18.457 159.918 18.759C160.649 19.0494 161.288 19.456 161.834 19.9787C162.392 20.5015 162.845 21.1171 163.193 21.8257H163.298V18.6893H167.637V36.6367C167.637 38.0307 167.282 39.2504 166.574 40.2959C165.865 41.353 164.86 42.1719 163.559 42.7527C162.258 43.3336 160.713 43.624 158.924 43.624ZM158.802 33.7093C159.709 33.7093 160.498 33.4712 161.172 32.9949C161.846 32.507 162.369 31.8217 162.74 30.9388C163.124 30.056 163.315 29.0221 163.315 27.8372V27.8198C163.315 26.6233 163.124 25.5895 162.74 24.7182C162.357 23.8354 161.829 23.1558 161.155 22.6795C160.481 22.2033 159.697 21.9651 158.802 21.9651C157.873 21.9651 157.066 22.2033 156.38 22.6795C155.695 23.1558 155.167 23.8296 154.795 24.7008C154.423 25.572 154.237 26.6117 154.237 27.8198V27.8372C154.237 29.0453 154.423 30.0908 154.795 30.9737C155.167 31.8449 155.695 32.5187 156.38 32.9949C157.066 33.4712 157.873 33.7093 158.802 33.7093ZM178.598 37.5253C176.751 37.5253 175.159 37.1362 173.823 36.3579C172.499 35.5796 171.483 34.476 170.774 33.0472C170.065 31.6184 169.711 29.9282 169.711 27.9766V27.9592C169.711 26.0193 170.065 24.3291 170.774 22.8886C171.494 21.4366 172.499 20.3098 173.788 19.5082C175.089 18.7067 176.623 18.3059 178.388 18.3059C180.143 18.3059 181.659 18.6951 182.936 19.4734C184.226 20.2401 185.213 21.3204 185.899 22.7144C186.595 24.1084 186.944 25.7347 186.944 27.5933V28.9873H171.854V26.0948H184.87L182.779 28.7956V27.1228C182.779 25.9147 182.594 24.9099 182.222 24.1084C181.85 23.3068 181.339 22.7086 180.689 22.3136C180.038 21.907 179.289 21.7038 178.441 21.7038C177.581 21.7038 176.814 21.9128 176.141 22.331C175.479 22.7376 174.956 23.3475 174.572 24.1606C174.201 24.9738 174.015 25.9612 174.015 27.1228V28.7956C174.015 29.9224 174.201 30.8865 174.572 31.6881C174.956 32.478 175.496 33.0879 176.193 33.5177C176.89 33.9359 177.721 34.145 178.685 34.145C179.405 34.145 180.038 34.0346 180.584 33.8139C181.13 33.5816 181.577 33.2853 181.926 32.9252C182.286 32.5651 182.536 32.176 182.675 31.7578L182.71 31.6358H186.752L186.717 31.8275C186.566 32.5361 186.288 33.2331 185.881 33.9184C185.475 34.5922 184.929 35.2021 184.243 35.748C183.558 36.294 182.745 36.7296 181.804 37.0549C180.863 37.3685 179.794 37.5253 178.598 37.5253ZM189.001 37.1594V18.6893H193.322V21.878H193.427C193.705 20.7628 194.211 19.8916 194.943 19.2643C195.686 18.6254 196.592 18.3059 197.661 18.3059C197.928 18.3059 198.184 18.3234 198.428 18.3582C198.671 18.3931 198.875 18.4337 199.037 18.4802V22.4007C198.863 22.331 198.613 22.273 198.288 22.2265C197.974 22.18 197.632 22.1568 197.26 22.1568C196.447 22.1568 195.744 22.3252 195.152 22.6621C194.559 22.9874 194.106 23.4695 193.793 24.1084C193.479 24.7473 193.322 25.5256 193.322 26.4433V37.1594H189.001Z" fill="#727C8F"/>
<defs>
<clipPath id="clip0_416_1083">
<rect width="30.4524" height="49.3188" fill="white"/>
</clipPath>
</defs>
</svg>
