<svg width="64" height="64" viewBox="0 0 64 64" fill="none" xmlns="http://www.w3.org/2000/svg">
<rect width="64" height="64" rx="12" fill="#F1F6FF"/>
<path d="M41.4933 35.92L41.92 36.7867C42.1333 37.2134 42.68 37.6134 43.1333 37.6934L43.7067 37.7867C45.4533 38.08 45.8533 39.36 44.6133 40.6134L44.08 41.1467C43.72 41.5067 43.5333 42.2 43.64 42.7067L43.7067 43.0267C44.1867 45.1334 43.0667 45.9467 41.24 44.84L40.8533 44.6C40.3867 44.32 39.6133 44.32 39.1467 44.6L38.76 44.84C36.92 45.9467 35.8133 45.1334 36.2933 43.0267L36.36 42.7067C36.4667 42.2134 36.28 41.5067 35.92 41.1467L35.3867 40.6134C34.1467 39.3467 34.5467 38.08 36.2933 37.7867L36.8667 37.6934C37.3333 37.6134 37.8667 37.2134 38.08 36.7867L38.5067 35.92C39.3333 34.2534 40.6667 34.2534 41.4933 35.92Z" fill="url(#paint0_linear_2701_151)"/>
<path d="M37.5867 18.6666H26.4133C21.56 18.6666 18.6667 21.56 18.6667 26.4133V37.5866C18.6667 42.44 21.56 45.3333 26.4133 45.3333H33.4533C33.92 45.3333 34.2533 44.8533 34.2 44.3866C34.1467 43.88 34.1733 43.28 34.3333 42.5866C34.36 42.4933 34.3333 42.3866 34.2533 42.3066L33.96 42.0133C32.8267 40.8666 32.4133 39.48 32.8133 38.2133C33.2267 36.96 34.3733 36.08 35.96 35.8133L36.36 35.7466L36.72 35.0266C37.4533 33.5333 38.6533 32.6666 40 32.6666C41.3467 32.6666 42.5467 33.5333 43.28 35.0266L43.48 35.44C43.5733 35.64 43.76 35.7733 43.9733 35.8133C44.0933 35.84 44.2133 35.8666 44.3333 35.8933C44.8 36.0133 45.3333 35.64 45.3333 35.1466V26.4133C45.3333 21.56 42.44 18.6666 37.5867 18.6666ZM37.68 27.9466L34.6 31.92C34.2133 32.4133 33.6667 32.7333 33.04 32.8C32.4267 32.88 31.8 32.7066 31.32 32.32L28.88 30.4266C28.7867 30.3466 28.68 30.3466 28.6267 30.36C28.5733 30.36 28.48 30.3866 28.4 30.4933L25.2267 34.6133C25.0267 34.8666 24.7333 35 24.4267 35C24.2133 35 24 34.9333 23.8133 34.7866C23.3733 34.4533 23.2933 33.8266 23.6267 33.3866L26.8 29.2666C27.1867 28.7733 27.7333 28.4533 28.36 28.3733C28.9867 28.2933 29.6 28.4666 30.0933 28.8533L32.5333 30.7733C32.6267 30.8533 32.72 30.84 32.7867 30.84C32.84 30.84 32.9333 30.8133 33.0133 30.7066L36.0933 26.7333C36.4267 26.2933 37.0533 26.2133 37.4933 26.56C37.9467 26.8933 38.0133 27.52 37.68 27.9466Z" fill="url(#paint1_linear_2701_151)"/>
<defs>
<linearGradient id="paint0_linear_2701_151" x1="45.1409" y1="34.67" x2="32.4522" y2="39.4249" gradientUnits="userSpaceOnUse">
<stop stop-color="#2878FF"/>
<stop offset="1" stop-color="#2C65C8"/>
</linearGradient>
<linearGradient id="paint1_linear_2701_151" x1="44.8525" y1="18.6666" x2="13.1288" y2="30.5525" gradientUnits="userSpaceOnUse">
<stop stop-color="#2878FF"/>
<stop offset="1" stop-color="#2C65C8"/>
</linearGradient>
</defs>
</svg>
