<svg width="64" height="64" viewBox="0 0 64 64" fill="none" xmlns="http://www.w3.org/2000/svg">
<rect width="64" height="64" rx="12" fill="#F1F6FF"/>
<path d="M37.5867 18.6666H26.4133C21.56 18.6666 18.6667 21.56 18.6667 26.4133V37.5733C18.6667 42.44 21.56 45.3333 26.4133 45.3333H37.5733C42.4267 45.3333 45.32 42.44 45.32 37.5866V26.4133C45.3333 21.56 42.44 18.6666 37.5867 18.6666ZM38.6667 39H25.3333C24.7867 39 24.3333 38.5466 24.3333 38C24.3333 37.4533 24.7867 37 25.3333 37H38.6667C39.2133 37 39.6667 37.4533 39.6667 38C39.6667 38.5466 39.2133 39 38.6667 39ZM38.6667 33H25.3333C24.7867 33 24.3333 32.5466 24.3333 32C24.3333 31.4533 24.7867 31 25.3333 31H38.6667C39.2133 31 39.6667 31.4533 39.6667 32C39.6667 32.5466 39.2133 33 38.6667 33ZM38.6667 27H25.3333C24.7867 27 24.3333 26.5466 24.3333 26C24.3333 25.4533 24.7867 25 25.3333 25H38.6667C39.2133 25 39.6667 25.4533 39.6667 26C39.6667 26.5466 39.2133 27 38.6667 27Z" fill="url(#paint0_linear_2701_93)"/>
<defs>
<linearGradient id="paint0_linear_2701_93" x1="44.8394" y1="18.6666" x2="13.1276" y2="30.5421" gradientUnits="userSpaceOnUse">
<stop stop-color="#2878FF"/>
<stop offset="1" stop-color="#2C65C8"/>
</linearGradient>
</defs>
</svg>
