<svg width="64" height="64" viewBox="0 0 64 64" fill="none" xmlns="http://www.w3.org/2000/svg">
<rect width="64" height="64" rx="12" fill="#F1F6FF"/>
<path d="M37.5867 18.6666H26.4134C21.56 18.6666 18.6667 21.56 18.6667 26.4133V37.5733C18.6667 42.44 21.56 45.3333 26.4134 45.3333H37.5734C42.4267 45.3333 45.32 42.44 45.32 37.5866V26.4133C45.3334 21.56 42.44 18.6666 37.5867 18.6666ZM28.1467 38.5333C28.1467 38.9066 27.8534 39.2 27.48 39.2H23.76C23.3867 39.2 23.0934 38.9066 23.0934 38.5333V32.3733C23.0934 31.5333 23.7734 30.8533 24.6134 30.8533H27.48C27.8534 30.8533 28.1467 31.1466 28.1467 31.52V38.5333ZM34.52 38.5333C34.52 38.9066 34.2267 39.2 33.8534 39.2H30.1334C29.76 39.2 29.4667 38.9066 29.4667 38.5333V26.32C29.4667 25.48 30.1467 24.8 30.9867 24.8H33.0134C33.8534 24.8 34.5334 25.48 34.5334 26.32V38.5333H34.52ZM40.9067 38.5333C40.9067 38.9066 40.6134 39.2 40.24 39.2H36.52C36.1467 39.2 35.8534 38.9066 35.8534 38.5333V33.8C35.8534 33.4266 36.1467 33.1333 36.52 33.1333H39.3867C40.2267 33.1333 40.9067 33.8133 40.9067 34.6533V38.5333Z" fill="url(#paint0_linear_2701_109)"/>
<defs>
<linearGradient id="paint0_linear_2701_109" x1="44.8394" y1="18.6666" x2="13.1277" y2="30.5421" gradientUnits="userSpaceOnUse">
<stop stop-color="#2878FF"/>
<stop offset="1" stop-color="#2C65C8"/>
</linearGradient>
</defs>
</svg>
