<svg width="64" height="65" viewBox="0 0 64 65" fill="none" xmlns="http://www.w3.org/2000/svg">
<rect y="0.5" width="64" height="64" rx="12" fill="#F1F6FF"/>
<path d="M39.7467 23.8201V24.8067L35.0267 22.0734C33.24 21.0467 30.7467 21.0467 28.9733 22.0734L24.2533 24.8201V23.8201C24.2533 20.8201 25.8933 19.1667 28.8933 19.1667H35.1067C38.1067 19.1667 39.7467 20.8201 39.7467 23.8201Z" fill="url(#paint0_linear_2639_76)"/>
<path d="M39.7867 27.1267L39.6 27.0334L37.7867 25.9934L34.0267 23.8201C32.88 23.1534 31.12 23.1534 29.9733 23.8201L26.2133 25.9801L24.4 27.0467L24.16 27.1667C21.8267 28.7401 21.6667 29.0334 21.6667 31.5534V37.5801C21.6667 40.1001 21.8267 40.3934 24.2133 42.0067L29.9733 45.3267C30.5467 45.6734 31.2667 45.8201 32 45.8201C32.72 45.8201 33.4533 45.6601 34.0267 45.3267L39.84 41.9667C42.1867 40.3934 42.3333 40.1134 42.3333 37.5801V31.5534C42.3333 29.0334 42.1733 28.7401 39.7867 27.1267ZM35.72 34.5001L34.9067 35.5001C34.7733 35.6467 34.68 35.9267 34.6933 36.1267L34.7733 37.4067C34.8267 38.1934 34.2667 38.5934 33.5333 38.3134L32.3467 37.8334C32.16 37.7667 31.8533 37.7667 31.6667 37.8334L30.48 38.3001C29.7467 38.5934 29.1867 38.1801 29.24 37.3934L29.32 36.1134C29.3333 35.9134 29.24 35.6334 29.1067 35.4867L28.28 34.5001C27.7733 33.9001 28 33.2334 28.76 33.0334L30 32.7134C30.2 32.6601 30.4267 32.4734 30.5333 32.3134L31.2267 31.2467C31.6533 30.5801 32.3333 30.5801 32.7733 31.2467L33.4667 32.3134C33.5733 32.4867 33.8133 32.6601 34 32.7134L35.24 33.0334C36 33.2334 36.2267 33.9001 35.72 34.5001Z" fill="url(#paint1_linear_2639_76)"/>
<defs>
<linearGradient id="paint0_linear_2639_76" x1="39.4673" y1="19.1667" x2="29.2358" y2="29.6725" gradientUnits="userSpaceOnUse">
<stop stop-color="#2878FF"/>
<stop offset="1" stop-color="#2C65C8"/>
</linearGradient>
<linearGradient id="paint1_linear_2639_76" x1="41.9607" y1="23.3201" x2="16.8924" y2="31.947" gradientUnits="userSpaceOnUse">
<stop stop-color="#2878FF"/>
<stop offset="1" stop-color="#2C65C8"/>
</linearGradient>
</defs>
</svg>
