<svg width="64" height="65" viewBox="0 0 64 65" fill="none" xmlns="http://www.w3.org/2000/svg">
<rect y="0.5" width="64" height="64" rx="12" fill="#F1F6FF"/>
<path d="M33 37.7268H33.8667C34.7333 37.7268 35.4533 36.9534 35.4533 36.0201C35.4533 34.8601 35.04 34.6334 34.36 34.3934L33.0133 33.9268V37.7268H33Z" fill="url(#paint0_linear_2639_100)"/>
<path d="M31.96 19.0332C24.6 19.0599 18.64 25.0466 18.6667 32.4066C18.6933 39.7666 24.68 45.7266 32.04 45.6999C39.4 45.6732 45.36 39.6866 45.3333 32.3266C45.3067 24.9666 39.32 19.0199 31.96 19.0332ZM35.0133 32.4999C36.0533 32.8599 37.4533 33.6332 37.4533 36.0199C37.4533 38.0732 35.84 39.7266 33.8667 39.7266H33V40.4999C33 41.0466 32.5467 41.4999 32 41.4999C31.4533 41.4999 31 41.0466 31 40.4999V39.7266H30.52C28.3333 39.7266 26.56 37.8866 26.56 35.6199C26.56 35.0732 27.0133 34.6199 27.56 34.6199C28.1067 34.6199 28.56 35.0732 28.56 35.6199C28.56 36.7799 29.44 37.7266 30.52 37.7266H31V33.2199L28.9867 32.4999C27.9467 32.1399 26.5467 31.3666 26.5467 28.9799C26.5467 26.9266 28.16 25.2732 30.1333 25.2732H31V24.4999C31 23.9532 31.4533 23.4999 32 23.4999C32.5467 23.4999 33 23.9532 33 24.4999V25.2732H33.48C35.6667 25.2732 37.44 27.1132 37.44 29.3799C37.44 29.9266 36.9867 30.3799 36.44 30.3799C35.8933 30.3799 35.44 29.9266 35.44 29.3799C35.44 28.2199 34.56 27.2732 33.48 27.2732H33V31.7799L35.0133 32.4999Z" fill="url(#paint1_linear_2639_100)"/>
<path d="M28.56 28.9934C28.56 30.1534 28.9733 30.3801 29.6533 30.6201L31 31.0868V27.2734H30.1333C29.2667 27.2734 28.56 28.0468 28.56 28.9934Z" fill="url(#paint2_linear_2639_100)"/>
<defs>
<linearGradient id="paint0_linear_2639_100" x1="35.4091" y1="33.9268" x2="32.2648" y2="34.6873" gradientUnits="userSpaceOnUse">
<stop stop-color="#2878FF"/>
<stop offset="1" stop-color="#2C65C8"/>
</linearGradient>
<linearGradient id="paint1_linear_2639_100" x1="44.8525" y1="19.0332" x2="13.1287" y2="30.9192" gradientUnits="userSpaceOnUse">
<stop stop-color="#2878FF"/>
<stop offset="1" stop-color="#2C65C8"/>
</linearGradient>
<linearGradient id="paint2_linear_2639_100" x1="30.956" y1="27.2734" x2="27.8257" y2="28.0239" gradientUnits="userSpaceOnUse">
<stop stop-color="#2878FF"/>
<stop offset="1" stop-color="#2C65C8"/>
</linearGradient>
</defs>
</svg>
