<svg width="64" height="65" viewBox="0 0 64 65" fill="none" xmlns="http://www.w3.org/2000/svg">
<rect y="0.5" width="64" height="64" rx="12" fill="#F1F6FF"/>
<path d="M44.6667 37.1667C45.04 37.1667 45.3333 37.4601 45.3333 37.8334V39.1667C45.3333 41.3801 43.5467 43.1667 41.3333 43.1667C41.3333 40.9667 39.5333 39.1667 37.3333 39.1667C35.1333 39.1667 33.3333 40.9667 33.3333 43.1667H30.6667C30.6667 40.9667 28.8667 39.1667 26.6667 39.1667C24.4667 39.1667 22.6667 40.9667 22.6667 43.1667C20.4533 43.1667 18.6667 41.3801 18.6667 39.1667V36.5001C18.6667 35.7667 19.2667 35.1667 20 35.1667H32.6667C34.5067 35.1667 36 33.6734 36 31.8334V24.5001C36 23.7667 36.6 23.1667 37.3333 23.1667H38.4533C39.4133 23.1667 40.2933 23.6867 40.7733 24.5134L41.6267 26.0067C41.7467 26.2201 41.5867 26.5001 41.3333 26.5001C39.4933 26.5001 38 27.9934 38 29.8334V33.8334C38 35.6734 39.4933 37.1667 41.3333 37.1667H44.6667Z" fill="url(#paint0_linear_2639_42)"/>
<path d="M26.6667 45.8333C28.1394 45.8333 29.3333 44.6394 29.3333 43.1667C29.3333 41.6939 28.1394 40.5 26.6667 40.5C25.1939 40.5 24 41.6939 24 43.1667C24 44.6394 25.1939 45.8333 26.6667 45.8333Z" fill="url(#paint1_linear_2639_42)"/>
<path d="M37.3333 45.8333C38.8061 45.8333 40 44.6394 40 43.1667C40 41.6939 38.8061 40.5 37.3333 40.5C35.8606 40.5 34.6667 41.6939 34.6667 43.1667C34.6667 44.6394 35.8606 45.8333 37.3333 45.8333Z" fill="url(#paint2_linear_2639_42)"/>
<path d="M45.3333 33.2067V35.1667H41.3333C40.6 35.1667 40 34.5667 40 33.8333V29.8333C40 29.1 40.6 28.5 41.3333 28.5H43.0533L44.9867 31.8867C45.2133 32.2867 45.3333 32.74 45.3333 33.2067Z" fill="url(#paint3_linear_2639_42)"/>
<path d="M33.44 19.1667H23.5866C21.2 19.1667 19.2 20.8734 18.76 23.1401H24.5866C25.0933 23.1401 25.4933 23.5534 25.4933 24.0601C25.4933 24.5667 25.0933 24.9667 24.5866 24.9667H18.6666V26.8067H22.1333C22.64 26.8067 23.0533 27.2201 23.0533 27.7267C23.0533 28.2334 22.64 28.6334 22.1333 28.6334H18.6666V30.4734H19.6933C20.2 30.4734 20.6133 30.8867 20.6133 31.3934C20.6133 31.9001 20.2 32.3001 19.6933 32.3001H18.6666V32.6067C18.6666 33.3401 19.2666 33.9401 20 33.9401H32.2C33.56 33.9401 34.6666 32.8334 34.6666 31.4734V20.3934C34.6666 19.7134 34.12 19.1667 33.44 19.1667Z" fill="url(#paint4_linear_2639_42)"/>
<path d="M18.76 23.1401H18.56H17.2533C16.7466 23.1401 16.3333 23.5535 16.3333 24.0601C16.3333 24.5668 16.7466 24.9668 17.2533 24.9668H18.4666H18.6666V24.0868C18.6666 23.7668 18.7066 23.4468 18.76 23.1401Z" fill="url(#paint5_linear_2639_42)"/>
<path d="M18.4666 26.8069H17.2533C16.7466 26.8069 16.3333 27.2202 16.3333 27.7269C16.3333 28.2336 16.7466 28.6336 17.2533 28.6336H18.4666H18.6666V26.8069H18.4666Z" fill="url(#paint6_linear_2639_42)"/>
<path d="M18.4666 30.4734H17.2533C16.7466 30.4734 16.3333 30.8867 16.3333 31.3934C16.3333 31.9001 16.7466 32.3001 17.2533 32.3001H18.4666H18.6666V30.4734H18.4666Z" fill="url(#paint7_linear_2639_42)"/>
<defs>
<linearGradient id="paint0_linear_2639_42" x1="44.8525" y1="23.1667" x2="15.9007" y2="37.6298" gradientUnits="userSpaceOnUse">
<stop stop-color="#2878FF"/>
<stop offset="1" stop-color="#2C65C8"/>
</linearGradient>
<linearGradient id="paint1_linear_2639_42" x1="29.2372" y1="40.5" x2="22.8924" y2="42.8772" gradientUnits="userSpaceOnUse">
<stop stop-color="#2878FF"/>
<stop offset="1" stop-color="#2C65C8"/>
</linearGradient>
<linearGradient id="paint2_linear_2639_42" x1="39.9038" y1="40.5" x2="33.5591" y2="42.8772" gradientUnits="userSpaceOnUse">
<stop stop-color="#2878FF"/>
<stop offset="1" stop-color="#2C65C8"/>
</linearGradient>
<linearGradient id="paint3_linear_2639_42" x1="45.2372" y1="28.5" x2="38.5982" y2="30.4899" gradientUnits="userSpaceOnUse">
<stop stop-color="#2878FF"/>
<stop offset="1" stop-color="#2C65C8"/>
</linearGradient>
<linearGradient id="paint4_linear_2639_42" x1="34.3781" y1="19.1667" x2="15.7407" y2="26.7294" gradientUnits="userSpaceOnUse">
<stop stop-color="#2878FF"/>
<stop offset="1" stop-color="#2C65C8"/>
</linearGradient>
<linearGradient id="paint5_linear_2639_42" x1="18.7162" y1="23.1401" x2="16.0778" y2="24.4534" gradientUnits="userSpaceOnUse">
<stop stop-color="#2878FF"/>
<stop offset="1" stop-color="#2C65C8"/>
</linearGradient>
<linearGradient id="paint6_linear_2639_42" x1="18.6246" y1="26.8069" x2="16.049" y2="28.0395" gradientUnits="userSpaceOnUse">
<stop stop-color="#2878FF"/>
<stop offset="1" stop-color="#2C65C8"/>
</linearGradient>
<linearGradient id="paint7_linear_2639_42" x1="18.6246" y1="30.4734" x2="16.049" y2="31.706" gradientUnits="userSpaceOnUse">
<stop stop-color="#2878FF"/>
<stop offset="1" stop-color="#2C65C8"/>
</linearGradient>
</defs>
</svg>
