<svg width="20" height="20" viewBox="0 0 20 20" fill="none" xmlns="http://www.w3.org/2000/svg">
<path d="M7.5 18.3333H12.5C16.6667 18.3333 18.3333 16.6666 18.3333 12.5V7.49996C18.3333 3.33329 16.6667 1.66663 12.5 1.66663H7.5C3.33334 1.66663 1.66667 3.33329 1.66667 7.49996V12.5C1.66667 16.6666 3.33334 18.3333 7.5 18.3333Z" stroke="white" stroke-linecap="round" stroke-linejoin="round"/>
<path d="M9.99999 12.9167C11.6108 12.9167 12.9167 11.6109 12.9167 10C12.9167 8.38921 11.6108 7.08337 9.99999 7.08337C8.38916 7.08337 7.08333 8.38921 7.08333 10C7.08333 11.6109 8.38916 12.9167 9.99999 12.9167Z" stroke="white" stroke-linecap="round" stroke-linejoin="round"/>
<path d="M14.6968 5.83329H14.7064" stroke="white" stroke-linecap="round" stroke-linejoin="round"/>
</svg>
